<?xml version="1.0" encoding="UTF-8"?>
<svg xmlns="http://www.w3.org/2000/svg" xmlns:xlink="http://www.w3.org/1999/xlink" width="480pt" height="480pt" viewBox="0 0 480 480" version="1.1">
<g id="surface1">
<path style=" stroke:none;fill-rule:nonzero;fill:#8D6E63;fill-opacity:1;" d="M 360 360.101563 C 360 384.878906 345.96875 395.878906 313.679688 395.878906 C 287.019531 395.878906 264.570313 386.25 236.488281 386.25 C 208.429688 386.25 191.578125 400 160.699219 400 C 131.238281 400 120 379.351563 120 364.21875 C 120 333.941406 142.460938 329.820313 167.710938 303.648438 C 192.988281 277.519531 207.019531 250 233.691406 250 C 264.570313 250 274.398438 283.03125 296.851563 309.179688 C 316.488281 333.941406 360 331.179688 360 360.101563 Z "/>
<path style=" stroke:none;fill-rule:nonzero;fill:#8D6E63;fill-opacity:1;" d="M 300.160156 210 C 333.378906 210 350 168.140625 350 129.179688 C 350 90.21875 326.460938 70 311.230469 70 C 278 70 260 106.078125 260 130.621094 C 260 153.710938 269.691406 210 300.160156 210 Z "/>
<path style=" stroke:none;fill-rule:nonzero;fill:#8D6E63;fill-opacity:1;" d="M 188.820313 200 C 222.371094 200 230 159.460938 230 121.71875 C 230 93.75 210.171875 70 190.328125 70 C 155.25 70 140 103.539063 140 131.5 C 140 153.878906 159.828125 200 188.820313 200 Z "/>
<path style=" stroke:none;fill-rule:nonzero;fill:#8D6E63;fill-opacity:1;" d="M 150 240.238281 C 150 215.109375 127.871094 190 107.21875 190 C 86.558594 190 60 220.691406 60 254.179688 C 60 276.511719 77.710938 310 105.730469 310 C 132.300781 310 150 275.109375 150 240.238281 Z "/>
<path style=" stroke:none;fill-rule:nonzero;fill:#8D6E63;fill-opacity:1;" d="M 397.328125 190.628906 C 377.949219 186.449219 357.160156 203.191406 340.539063 236.648438 C 319.769531 274.328125 332.230469 303.601563 355.769531 309.191406 C 379.320313 314.78125 402.859375 291.050781 415.320313 256.191406 C 426.410156 229.679688 416.71875 194.800781 397.328125 190.628906 Z "/>
<path style=" stroke:none;fill-rule:nonzero;fill:#6D4C41;fill-opacity:1;" d="M 182.089844 317.558594 C 189.050781 310.351563 195.21875 303.070313 200.648438 296.628906 C 215.019531 279.628906 223.640625 270 233.679688 270 C 244.050781 270 250.351563 277.871094 263.308594 297.179688 C 296.859375 354.691406 348.738281 338.75 359.988281 360.101563 C 359.988281 331.179688 316.480469 333.941406 296.839844 309.179688 C 274.390625 283.03125 264.570313 250 233.691406 250 C 207.019531 250 192.988281 277.519531 167.71875 303.648438 C 142.46875 329.808594 120 333.941406 120 364.21875 C 120 364.648438 120.109375 365.121094 120.121094 365.570313 C 122.761719 342.398438 163.320313 336.058594 182.089844 317.558594 Z "/>
<path style=" stroke:none;fill-rule:nonzero;fill:#6D4C41;fill-opacity:1;" d="M 311.109375 90 C 323.921875 90.929688 347.878906 122.601563 348.390625 150.039063 C 349.449219 143.160156 350 136.128906 350 129.179688 C 350 90.210938 326.460938 70 311.230469 70 C 278 70 260 106.078125 260 130.621094 C 260 136.230469 260.589844 143.808594 261.878906 152.058594 C 261.878906 152 261.871094 151.941406 261.871094 151.941406 C 261.878906 132.191406 285 90.308594 311.109375 90 Z "/>
<path style=" stroke:none;fill-rule:nonzero;fill:#6D4C41;fill-opacity:1;" d="M 190.328125 90 C 197.191406 90 229.460938 108.488281 229.039063 143.28125 C 229.71875 136.191406 230 128.910156 230 121.71875 C 230 93.75 210.171875 70 190.328125 70 C 155.25 70 140 103.539063 140 131.5 C 140 137.191406 141.300781 144.429688 143.691406 152.050781 C 143.570313 151.371094 143.441406 150.691406 143.441406 150 C 143.441406 135.640625 166.339844 90 190.328125 90 Z "/>
<path style=" stroke:none;fill-rule:nonzero;fill:#6D4C41;fill-opacity:1;" d="M 107.21875 210 C 135.621094 210 149.410156 250.898438 149.410156 250.898438 C 149.769531 247.359375 150 243.808594 150 240.238281 C 150 215.109375 127.871094 190 107.21875 190 C 86.558594 190 60 220.691406 60 254.179688 C 60 259.898438 61.179688 266.359375 63.378906 272.789063 C 63.25 272.160156 63.128906 271.519531 63.128906 270.839844 C 63.128906 246.730469 90.480469 210 107.21875 210 Z "/>
<path style=" stroke:none;fill-rule:nonzero;fill:#6D4C41;fill-opacity:1;" d="M 397.328125 190.628906 C 395.371094 190.210938 393.398438 190 391.429688 190 C 373.789063 190 355.488281 206.558594 340.550781 236.640625 C 332.679688 250.921875 329.589844 263.960938 330.058594 275 C 334.828125 257.859375 368.058594 209.449219 391.429688 210 C 392 210.019531 392.558594 210.058594 392.890625 210.101563 C 409.578125 214.421875 410.160156 260.019531 404.320313 279.441406 C 408.539063 272.511719 412.300781 264.71875 415.351563 256.191406 C 426.410156 229.679688 416.71875 194.800781 397.328125 190.628906 Z "/>
</g>
</svg>
